<?xml version="1.0" encoding="utf-8"?>
<!-- Generator: Adobe Illustrator 22.1.0, SVG Export Plug-In . SVG Version: 6.00 Build 0)  -->
<svg version="1.0" id="Layer_1" xmlns="http://www.w3.org/2000/svg" xmlns:xlink="http://www.w3.org/1999/xlink" x="0px" y="0px"
	 viewBox="0 0 347 585" style="enable-background:new 0 0 347 585;" xml:space="preserve">
<style type="text/css">
	.st0{fill:#00BEB6;}
	.st1{fill:#FF8625;}
	.st2{fill:#CE84B6;}
	.st3{fill:#FFFFFF;}
	.st4{fill:#E0E0E0;}
</style>
<g>
	<g>
		<path class="st0" d="M333.2,149.3l-18.4-16.9l1.6-1.7c2.8-3.1,5.3-6.5,7.4-10.1c12.5-22.1,8.1-49.6-10.5-66.8
			c-10.7-9.8-24.6-14.9-39.1-14.3c-14.5,0.6-27.9,6.8-37.8,17.5l-1.6,1.7l-18.4-16.9l1.6-1.7c29.7-32.2,80-34.3,112.2-4.7
			c6.9,6.4,12.6,13.8,16.8,22.1v72.8c-0.4,0.9-0.9,1.8-1.4,2.6c-3,5.3-6.6,10.2-10.7,14.7L333.2,149.3z"/>
		<path class="st0" d="M203.3,97c2-0.1,3.9-0.7,5.7-1.8c1-0.8,2.1-1.6,3.1-2.4c1.9-1.9,3.2-4.1,3.9-6.7c0,0,0,0,0-0.1
			c0-0.1,0.6-4,0.5-4.1c0,0,0,0,0-0.1c0-0.1-0.5-4-0.5-4.1c0,0,0,0,0-0.1c0,0-1.5-3.6-1.5-3.7c0,0,0,0,0-0.1c0,0-2.4-3.1-2.4-3.1
			c0,0,0,0,0,0c-0.1-0.1-3-2.3-3.1-2.4c0,0-0.1,0-0.1-0.1c-0.2-0.1-3.5-1.5-3.7-1.6c0,0,0,0-0.1,0c-0.7-0.2-1.8-0.2-2.2-0.3
			c-2.7-0.4-1.4-0.4-4.1,0c-0.7,0.1-1.4,0.1-2,0.3c0,0,0,0,0,0c-0.7,0.2-1.4,0.6-1.9,0.8c-0.5,0.2-1.3,0.5-1.9,0.8
			c-0.2,0.1-3,2.3-3.1,2.4c0,0,0,0,0,0c0,0,0,0,0,0c-0.1,0.1-2.4,3-2.4,3.1c0,0,0,0,0,0.1c-0.1,0.1-1.5,3.6-1.6,3.7
			c-0.1,0.4-0.3,1.6-0.3,2.1c-0.1,0.5-0.2,1.6-0.2,2c0,0,0,0,0,0c0.1,0.7,0.2,1.4,0.3,2c-0.1-0.6,0.1,1.5,0.3,2.1
			c0.5,2,1.4,3.7,2.7,5.2c1.1,1.7,2.5,3,4.3,3.9c1.2,0.5,2.4,1,3.6,1.5c1.4,0.4,2.8,0.6,4.2,0.5C201.3,97.3,202.3,97.3,203.3,97"/>
	</g>
	<g>
		<path class="st0" d="M90.9,108.3c2.1,2.4,6.3,1.9,9.4-1c3.1-2.9,3.9-7.2,1.8-9.6c-2.1-2.4-6.3-1.9-9.4,1
			C89.6,101.6,88.8,105.9,90.9,108.3"/>
		<path class="st0" d="M61.7,91.4c3.1,0.6,6.5-2.2,7.5-6.3c1-4.1-0.7-8-3.8-8.7c-3.1-0.6-6.5,2.2-7.5,6.3
			C56.8,86.8,58.6,90.7,61.7,91.4"/>
		<path class="st0" d="M88,93.5c2.6,1.9,6.7,0.5,9.2-3c2.5-3.5,2.4-7.9-0.2-9.8c-2.6-1.9-6.7-0.5-9.2,3C85.3,87.3,85.3,91.7,88,93.5
			"/>
		<path class="st0" d="M76,86.6c2.9,1.3,6.8-0.8,8.6-4.7c1.8-3.9,0.9-8.2-2-9.5c-2.9-1.3-6.8,0.8-8.6,4.7C72.2,81,73,85.2,76,86.6"
			/>
		<path class="st0" d="M63.8,95.3c-0.2,0-1.1,0.2-1.3,0.2c-5.5,1-9.4,6.3-7.2,11.2c2.3,5.2,8.5,4.9,12.9,7.3l0,0
			c4.2,2.7,7.1,8.1,12.7,7.6c5.3-0.5,8-6.6,6.1-11.9c-0.1-0.2-0.4-1-0.5-1.3c-1.1-3.4,0.4-7.6-1-10.9c-0.9-2.2-2.7-4.2-4.7-5.3
			c-2-1.2-4.6-1.7-6.9-1.4C70.2,91.2,67.3,94.5,63.8,95.3"/>
	</g>
	<path class="st1" d="M204.6,160.4c-1.4-4-3.6-7.3-7.3-9.5c-3.4-2-8.4-2.8-12.3-1.6c-8.2,2.7-13.5,11-11.1,19.6
		c1,3.7,1.8,7.5,2.4,11.3c1,8.7,0.9,17.5-0.1,26.1c-1.6,10.2-4.4,20.3-8.3,29.9c-3.8,8.6-8.5,16.7-13.8,24.5h0.1
		c-0.8,1.1-1.5,2.1-2.3,3.2c-10.9,13.9-23.6,26.8-36.8,38.5c-3,2.6-5.1,8.1-4.9,12c0.2,3.8,1.3,7.2,3.7,10.2c2.2,2.8,5.3,5.2,8.8,6
		c4.1,0.9,9.5,0.9,13-1.8c10-7.7,19.9-15.7,28.6-24.8c8.7-9.1,16.6-19.3,23.4-29.9c2.8-4.3,5.4-8.8,7.7-13.3h0.1
		c8.8-17.8,14.2-37.2,15.2-57.1C211.7,189,209.6,174.1,204.6,160.4z"/>
	<path class="st1" d="M347,443.6c-1.5-0.9-3.1-1.5-4.7-2c-4.9-1.4-11.5-0.7-15.9,2.1c-9.8,6.3-12.7,17.9-7.4,28.2
		c2.1,4.1,4.2,8.1,6.1,12.3c1.9,4.9,3.5,10,4.4,15.3c0.3,2.9,0.3,5.8,0.1,8.7c-0.5,2.4-1.1,4.7-1.9,7c-0.8,1.6-1.7,3.1-2.6,4.6
		c-0.8,0.9-1.7,1.8-2.6,2.6c-0.9,0.6-1.8,1.1-2.8,1.6c-1.9,0.6-3.9,1.1-5.9,1.5c-5.7,0.5-11.5,0.4-17.2,0.3
		c-7.8-0.1-15.4,0.4-23.1,1.7c-13.9,2.4-27,9.5-37.5,18.8c-10.2,9-18.4,21.9-21.4,35.3c-0.3,1.1-0.5,2.3-0.7,3.5h41.7
		c0.8-1.3,1.6-2.6,2.4-3.9c2-2.3,4.1-4.4,6.5-6.4c2.9-2.1,6-3.9,9.2-5.4c3.2-1.2,6.6-2.1,10-2.7c8.9-0.8,17.9,0,26.8-0.4
		c13.2-0.6,25.7-3.7,36.3-11.8V443.6z"/>
	<g>
		<polygon class="st2" points="217.3,347.6 0,473.8 156.6,529.1 		"/>
		<path class="st3" d="M88.6,474.5c1.3,1.5,3.9,1.3,5.8-0.5c1.9-1.8,2.5-4.4,1.2-5.9c-1.3-1.5-3.9-1.3-5.8,0.5
			C87.9,470.3,87.4,473,88.6,474.5"/>
		<path class="st3" d="M70.8,463.7c1.9,0.4,4-1.3,4.7-3.8c0.7-2.5-0.3-5-2.3-5.4c-1.9-0.4-4,1.3-4.7,3.8
			C67.9,460.8,68.9,463.2,70.8,463.7"/>
		<path class="st3" d="M87,465.3c1.6,1.2,4.2,0.4,5.7-1.7c1.6-2.2,1.6-4.9,0-6c-1.6-1.2-4.2-0.4-5.7,1.7
			C85.4,461.4,85.4,464.1,87,465.3"/>
		<path class="st3" d="M79.7,460.9c1.8,0.9,4.2-0.4,5.4-2.8c1.2-2.4,0.7-5-1.1-5.9c-1.8-0.9-4.2,0.4-5.4,2.8
			C77.4,457.4,77.9,460,79.7,460.9"/>
		<path class="st3" d="M72.1,466.1c-0.1,0-0.7,0.1-0.8,0.1c-3.4,0.6-5.9,3.8-4.6,6.8c1.4,3.2,5.2,3.1,7.9,4.6
			c2.6,1.7,4.3,5.1,7.8,4.8c3.3-0.3,5-4,3.9-7.3c0-0.1-0.2-0.6-0.3-0.8c-0.6-2.1,0.3-4.7-0.5-6.7c-0.5-1.4-1.6-2.6-2.8-3.3
			c-1.2-0.8-2.8-1.1-4.3-1C76,463.7,74.2,465.7,72.1,466.1"/>
		<polygon class="st3" points="165.7,439.7 165.6,441 165,442.3 164,443.4 162.7,443.9 161.4,443.9 160.3,443.6 159.3,442.8 
			158.5,441.7 158.2,439.9 158.4,437.9 158.4,436.2 158.1,434.8 157.4,433.2 156.5,431.6 149.8,421.8 148.5,420 146.9,418.5 
			144.9,417.4 142.9,416.6 141.5,415.9 140,414.7 139.2,412.9 139,411.3 139.7,409.5 141.5,408.6 143.2,408.1 144.5,408.3 
			145.3,408.5 145.3,407.2 145.7,406 146.6,404.9 148.2,404.1 150.2,404.1 152.2,405.6 152.6,408 152.4,410.1 152.5,412.2 
			153.1,414.1 154.5,416.2 161.9,427.2 163.5,429.3 165.3,430.5 167.7,431.4 169.7,432.2 171.2,433.3 171.8,435.3 171.6,436.9 
			170.7,438.4 169.7,439.5 168.1,440 166.6,439.9 		"/>
	</g>
	<path class="st4" d="M253.9,275.5c0,0.1,0.1,0.3,0.1,0.4c0.2,0.6,0.8,1,1.4,0.8c0.6-0.2,1-0.8,0.8-1.4c-1.2-4.6,1.4-8.1,4-9.7
		c2.6-1.6,6.6-2.2,10.1,1c2.5,2.2,2.8,5.2,2.5,9c-0.3,4-0.3,8.4,1.6,12.7c0.7,1.6,1.6,2.8,2.6,4.1l24.5,33.1c2.5,3.4,7,5.6,10.2,6.7
		c1.3,0.5,2.7,0.9,4.1,1.3c5.3,1.5,10.2,2.9,10.8,8c0.2,5.2-2.1,11.5-9.6,12.4c-2.1,0.1-4.8-0.8-6.8-2.3c-0.5-0.4-1.2-0.3-1.6,0.3
		c-0.4,0.5-0.3,1.2,0.3,1.6c2.4,1.8,5.7,2.8,8.3,2.7c0,0,0.1,0,0.1,0c7.4-0.9,12.1-6.8,11.7-14.9c0,0,0-0.1,0-0.1
		c-0.8-6.7-7-8.4-12.5-10c-1.4-0.4-2.7-0.8-4-1.2c-2.4-0.9-6.8-2.8-9.2-5.9l-24-32.5l-0.4-0.6c-0.9-1.2-1.7-2.3-2.3-3.6
		c-1.6-3.7-1.7-7.3-1.4-11.6c0.3-3.9,0-7.9-3.3-10.9c-3.7-3.3-8.6-3.8-12.8-1.2C254.8,266.2,252.8,270.9,253.9,275.5L238,286.6
		c-0.9-4,0.6-8.7,5.4-11.1c5.1-2.7,10.6-2.5,14.8,0.5c0.5,0.4,0.6,1.1,0.2,1.6c-0.4,0.5-1.1,0.6-1.6,0.2c-3.5-2.5-8.1-2.7-12.4-0.4
		c-4.3,2.2-5.2,6.6-3.8,9.8c0,0.1,0,0.1,0.1,0.2c1.3,5.5,6.6,7.4,12.3,9.3c0.7,0.2,1.3,0.5,2,0.7c4.8,1.5,9.3,4.7,13.1,9.4
		c4.4,5.5,8.7,11.3,12.5,16.4c0.7,1,1.5,2,2.2,3c1,1.4,2,2.9,3.1,4.2c3.3,4.3,7,9.4,8.2,15.4c0.5,2.2,0.3,4.5,0.1,6.7
		c-0.3,3.8-0.5,7.1,2.3,9.7c3.4,3.2,7.4,2.8,10,1.4c3.4-1.9,5.2-5.5,4.4-9.3c-0.1-0.6,0.3-1.2,0.9-1.4c0.6-0.1,1.2,0.3,1.4,0.9
		c0.9,4.7-1.3,9.4-5.6,11.7c-4.2,2.3-9.1,1.7-12.7-1.7c-3.6-3.4-3.3-7.5-3-11.6c0.1-2,0.3-4.1-0.1-6.1c-1.1-5.5-4.6-10.3-7.7-14.4
		c-1.1-1.4-2.1-2.9-3.2-4.3c-0.7-1-1.4-2-2.2-3c-3.8-5.1-8-10.9-12.4-16.3c-3.5-4.4-7.6-7.3-12-8.7c-0.7-0.2-1.3-0.5-2-0.7
		c-5.9-2.1-12.1-4.2-13.7-10.9c-0.2-0.5-0.4-1-0.5-1.5"/>
</g>
</svg>
