<?xml version="1.0" encoding="utf-8"?>
<!-- Generator: Adobe Illustrator 22.1.0, SVG Export Plug-In . SVG Version: 6.00 Build 0)  -->
<svg version="1.0" id="Layer_1" xmlns="http://www.w3.org/2000/svg" xmlns:xlink="http://www.w3.org/1999/xlink" x="0px" y="0px"
	 viewBox="0 0 459.7 865.6" style="enable-background:new 0 0 459.7 865.6;" xml:space="preserve">
<style type="text/css">
	.st0{fill:#CE84B6;}
	.st1{fill:#F1F1F1;}
	.st2{fill:#FF8625;}
	.st3{fill:#FFFFFF;}
	.st4{fill:#E0E0E0;}
	.st5{fill:#00BEB6;}
</style>
<g>
	<path class="st0" d="M419.5,771.1c-0.8,4.8-2.2,9.4-4,13.9c-2.2,5.7-4.6,11.3-7.6,16.6c-2.1,3.7-6.1,6.7-10.1,7.8
		c-4.1,1.1-9.5,0.6-13-1.7c-8-5.2-10.4-14.7-6.1-23.2c1.7-3.3,3.5-6.7,5-10.1c1.6-4.1,2.8-8.2,3.6-12.5c0.2-2.4,0.2-4.8,0.1-7.2
		c-0.4-1.9-0.9-3.9-1.6-5.7c-0.6-1.3-1.4-2.6-2.2-3.8c-0.7-0.8-1.4-1.5-2.1-2.2c-0.7-0.5-1.5-0.9-2.3-1.3c-1.6-0.5-3.2-0.9-4.9-1.3
		c-4.7-0.4-9.4-0.3-14.2-0.2c-6.4,0.1-12.7-0.3-19-1.4c-11.5-2-22.2-7.8-30.8-15.5c-8.4-7.4-15.1-18-17.6-29
		c-0.2-0.8-0.4-1.7-0.5-2.5h-0.2c-1.1-5.1-1.7-10.4-1.1-15.6c0.4-3.2,0.8-6.5,1.6-9.7c0.9-3.2,2.2-6.4,3.6-9.4
		c5.1-11.4,15.4-20.2,27.3-23.7c6.5-1.9,13.4,1.8,16,7.8c2.6,6.1,0.4,13.6-5.5,16.9c-0.8,0.5-1.6,1-2.4,1.5
		c-1.5,1.3-2.8,2.7-4.1,4.2c-1.3,1.8-2.4,3.7-3.3,5.7c-0.7,2-1.3,4-1.7,6.1c-0.2,2.1-0.2,4.2,0,6.3c0.3,1.7,0.8,3.4,1.4,5.1
		c0.8,1.5,1.6,3,2.5,4.4h0.1c0.6,1.1,1.3,2.2,2,3.2c1.6,1.9,3.4,3.7,5.3,5.3c2.4,1.7,4.9,3.2,7.6,4.5c2.7,1,5.4,1.7,8.2,2.3
		c7.3,0.6,14.7,0,22.1,0.3c11,0.5,21.3,3.1,30.1,9.9c8,6.2,13.4,14.8,16.5,24.4C421.4,751.1,421.2,761.2,419.5,771.1z"/>
	<g>
		<path class="st0" d="M156.8,659.4c-35.3,9-16.2,17.2-18,45.5c-1.2,19.3-4.8,37.8-33.7,47.6c-42.3,14.3-9.5,28.6-19.4,68.9
			c-7.4,30-59.7,34.7-59.7,34.7c-7,6.1-15.5,8.9-24.3,9.5v-320c48.3-7.4,151.5,37.1,171,47.8C196.3,606.4,192.1,650.4,156.8,659.4"
			/>
		<path class="st1" d="M108.1,681.3c-47.7,0-88.7-28.9-106.5-70.1v-91.3c17.7-41.3,58.7-70.1,106.5-70.1
			c64,0,115.8,51.8,115.8,115.8C224,629.4,172.1,681.3,108.1,681.3"/>
		<path class="st2" d="M244.6,677.5c-10.6,2.5-21.3,3.7-32.1,3.7c-31.3,0-62.2-10.7-87-30.1c-25.2-19.7-43.1-47.7-50.3-78.8
			C57.5,496.6,104.7,420.6,180.4,403l4-0.9l10.1,43.2l-4,0.9c-25.1,5.9-46.5,21.2-60.1,43.1c-13.6,21.9-17.9,47.8-12,73
			c10.3,44,48.9,74.7,94,74.7c7.4,0,14.8-0.9,22.1-2.6l4-0.9l10.1,43.2L244.6,677.5z"/>
		<path class="st3" d="M58.9,800.2c3-1,6.4,1.5,7.5,5.5c1.2,4-0.3,8.1-3.2,9.1c-3,1-6.4-1.5-7.5-5.5
			C54.5,805.3,55.9,801.2,58.9,800.2"/>
		<path class="st3" d="M25.7,800.2c3,1,4.4,5.1,3.2,9.1c-1.2,4-4.6,6.5-7.5,5.5c-3-1-4.4-5.1-3.2-9.1
			C19.3,801.7,22.7,799.2,25.7,800.2"/>
		<path class="st3" d="M49.1,811.4c3.1-0.3,6,2.9,6.4,7.1c0.4,4.2-1.9,7.9-5,8.2c-3.1,0.3-6-2.9-6.4-7.1
			C43.7,815.3,46,811.7,49.1,811.4"/>
		<path class="st3" d="M35.5,811.4c3.1,0.3,5.4,4,5,8.2c-0.4,4.2-3.2,7.4-6.4,7.1c-3.1-0.3-5.4-4-5-8.2
			C29.5,814.2,32.3,811,35.5,811.4"/>
		<path class="st3" d="M29.4,797.9c-0.2-0.2-0.9-0.7-1-0.8c-4.2-3.6-4.9-10.1-0.6-13.1c4.5-3.2,9.6,0,14.5,0.2
			c4.9-0.2,10-3.4,14.6-0.2c4.3,3.1,3.5,9.5-0.6,13.1c-0.2,0.1-0.9,0.7-1,0.8c-2.6,2.4-3.4,6.6-6.3,8.8c-1.9,1.4-4.4,2.3-6.6,2.2
			c-2.3,0.1-4.8-0.8-6.6-2.2C32.8,804.5,32,800.3,29.4,797.9"/>
		<polygon class="st3" points="96,725.1 97.9,724.6 99.9,723.3 101.4,721.4 101.7,719.2 101.5,717.2 100.6,715.6 99.2,714.2 
			97.1,713.3 94.3,713.3 91.2,714.2 88.6,714.6 86.2,714.5 83.5,713.8 80.7,712.8 63.5,705 60.4,703.4 57.6,701.2 55.4,698.5 
			53.5,695.5 52.1,693.5 49.9,691.6 46.8,690.7 44.2,690.8 41.6,692.5 40.6,695.5 40.3,698.2 40.9,700.3 41.6,701.5 39.5,701.8 
			37.7,702.8 36.2,704.5 35.3,707.3 35.9,710.4 38.8,713.1 42.6,713.1 46,712.2 49.3,711.8 52.3,712.3 56.1,713.9 75.4,722.5 
			79.1,724.4 81.4,727 83.5,730.4 85.3,733.5 87.5,735.4 90.6,735.9 93.1,735.1 95.3,733.4 96.7,731.5 97.1,728.8 96.6,726.4 		"/>
	</g>
	<path class="st4" d="M286,551c0.1,0,0.3,0,0.4,0c0.6,0,1.1,0.5,1.1,1.2c0,0.6-0.6,1.1-1.2,1.1c-4.8-0.2-7.6,3.1-8.6,6
		c-1,2.9-0.7,6.9,3.1,9.6c2.7,1.9,5.7,1.6,9.3,0.5c3.9-1.1,8.1-2.1,12.8-1.2c1.7,0.3,3.1,1,4.5,1.6l37.6,16.7
		c3.9,1.7,6.9,5.6,8.8,8.5c0.8,1.2,1.5,2.5,2.1,3.7c2.6,4.8,5.1,9.3,10.2,8.8c5.1-0.9,10.8-4.6,10-12.1c-0.4-2.1-1.8-4.5-3.7-6.2
		c-0.5-0.4-0.5-1.2-0.1-1.6c0.4-0.5,1.1-0.5,1.6-0.1c2.3,2,4,5,4.4,7.6c0,0,0,0.1,0,0.1c0.7,7.4-4.1,13.3-12,14.6c0,0-0.1,0-0.1,0
		c-6.7,0.7-9.8-5-12.5-10c-0.7-1.3-1.3-2.5-2.1-3.6c-1.4-2.2-4.2-6.1-7.8-7.6l-36.9-16.4l-0.7-0.3c-1.4-0.6-2.6-1.2-4-1.4
		c-4-0.8-7.5-0.1-11.7,1.1c-3.7,1.1-7.7,1.8-11.3-0.9c-4-2.9-5.6-7.6-4-12.2C277.1,554,281.2,551,286,551l7.4-17.9
		c-4.1,0-8.3,2.4-9.7,7.7c-1.6,5.5-0.2,10.9,3.8,14.3c0.5,0.4,1.2,0.4,1.6-0.1c0.4-0.5,0.4-1.2-0.1-1.6c-3.2-2.8-4.4-7.3-3-12
		c1.2-4.7,5.3-6.5,8.8-5.9c0.1,0,0.1,0,0.2,0c5.7,0.1,8.6,4.9,11.8,9.9c0.4,0.6,0.7,1.2,1.1,1.8c2.5,4.4,6.6,8,12,10.7
		c6.3,3.1,12.9,6.1,18.7,8.6c1.1,0.5,2.3,1,3.4,1.5c1.6,0.7,3.2,1.4,4.8,2.1c4.9,2.3,10.7,4.8,16.8,4.6c2.3,0,4.5-0.7,6.6-1.3
		c3.7-1.1,6.8-2,10,0.1c3.9,2.6,4.3,6.6,3.5,9.5c-1.1,3.8-4.3,6.2-8.1,6.3c-0.6,0-1.1,0.5-1.1,1.2c0,0.6,0.6,1.1,1.2,1.1
		c4.8-0.1,8.9-3.3,10.3-8c1.4-4.6-0.3-9.2-4.4-12c-4.1-2.8-8.1-1.6-11.9-0.4c-2,0.6-4,1.2-5.9,1.2c-5.6,0.1-11.1-2.2-15.7-4.4
		c-1.6-0.8-3.3-1.5-4.9-2.1c-1.1-0.5-2.3-1-3.4-1.5c-5.8-2.6-12.4-5.5-18.6-8.6c-5-2.5-8.8-5.8-11.1-9.8c-0.4-0.6-0.8-1.2-1.1-1.8
		c-3.3-5.3-6.7-10.9-13.6-11c-0.5-0.1-1.1-0.1-1.6-0.1"/>
	<path class="st5" d="M379.1,302.9c-1,2.6-2.1,5.1-3.2,7.7c0.1-0.2,0.2-0.5,0.3-0.7c-0.7,1.6-1.5,3.2-2.5,4.7
		c-0.8,1.3-1.7,2.5-2.6,3.8c-1.7,2.6-3.4,5.3-5,8c-2.9,5-5.6,10.1-7.9,15.4c-4.7,11.6-7.9,23.6-9.7,36c-0.4,3.3-0.7,6.6-0.9,10
		c-0.3,5.7,0.1,12.8-3.4,17.5c-1.2,2.1-2.9,3.8-5,5c-1.6,1-3.3,1.6-5.2,1.7c-4.3,0.6-8.6-0.7-11.8-3.8c-1.2-1.3-2.3-2.8-3.2-4.2
		c-1.8-2.9-1.9-5.6-2.3-8.9c-0.2-1.9-0.5-3.9-0.5-5.9c-0.1-3.6,0-7.2,0.1-10.7c0.4-8.5,1.7-17,3.5-25.3c3.4-15.2,9.2-29.9,17-43.3
		c2.1-3.6,4.4-7,6.8-10.3c1.9-2.5,3.7-5.1,6-7.3c2.3-2.1,5.1-4.1,7.8-5.7c5.1-3,11.7-2.4,16.2,1.1c2.1,1.6,3.5,3.4,4.5,5.8
		C379.6,296.1,380.2,299.9,379.1,302.9"/>
	<g>
		<path class="st5" d="M90.8,292.2c3.1-1,6.6,1.5,7.9,5.7c1.2,4.2-0.3,8.4-3.4,9.5c-3.1,1-6.6-1.5-7.9-5.7
			C86.2,297.4,87.7,293.2,90.8,292.2"/>
		<path class="st5" d="M56.2,292.2c3.1,1,4.6,5.3,3.4,9.5c-1.2,4.2-4.7,6.7-7.9,5.7c-3.1-1-4.6-5.3-3.4-9.5
			C49.6,293.7,53.1,291.1,56.2,292.2"/>
		<path class="st5" d="M80.6,303.8c3.3-0.3,6.2,3,6.6,7.4c0.4,4.4-1.9,8.2-5.2,8.6c-3.3,0.3-6.2-3-6.6-7.4
			C75,307.9,77.4,304.1,80.6,303.8"/>
		<path class="st5" d="M66.4,303.8c3.3,0.3,5.6,4.2,5.2,8.6c-0.4,4.4-3.4,7.7-6.6,7.4c-3.3-0.3-5.6-4.2-5.2-8.6
			C60.2,306.7,63.1,303.4,66.4,303.8"/>
		<path class="st5" d="M60.1,289.8c-0.2-0.2-0.9-0.7-1.1-0.9c-4.4-3.8-5.1-10.5-0.7-13.7c4.7-3.4,10,0,15.2,0.2
			c5.1-0.2,10.5-3.6,15.2-0.2c4.4,3.2,3.7,9.9-0.7,13.7c-0.2,0.1-0.9,0.7-1.1,0.9c-2.7,2.5-3.6,6.9-6.5,9.1
			c-1.9,1.5-4.5,2.4-6.9,2.3c-2.4,0.1-5-0.8-6.9-2.3C63.7,296.7,62.8,292.2,60.1,289.8"/>
	</g>
	<path class="st1" d="M0.4,265.6v-145c30.6,9.9,52.8,38.6,52.8,72.5S31,255.7,0.4,265.6"/>
</g>
</svg>
