<?xml version="1.0" encoding="utf-8"?>
<!-- Generator: Adobe Illustrator 22.1.0, SVG Export Plug-In . SVG Version: 6.00 Build 0)  -->
<svg version="1.0" id="Layer_1" xmlns="http://www.w3.org/2000/svg" xmlns:xlink="http://www.w3.org/1999/xlink" x="0px" y="0px"
	 viewBox="0 0 323.2 691.1" style="enable-background:new 0 0 323.2 691.1;" xml:space="preserve">
<style type="text/css">
	.st0{fill:#FF8625;}
	.st1{fill:#CE84B6;}
	.st2{fill:#00BEB6;}
	.st3{opacity:0.5;}
	.st4{clip-path:url(#SVGID_2_);fill:#FFFFFF;}
	.st5{fill:#E0E0E0;}
	.st6{fill:#F1F1F1;}
</style>
<g>
	<g>
		<path class="st0" d="M323.2,517.3c-0.4-0.2-0.7-0.5-1.1-0.7c-23.4-13.2-32.7,11.1-32.7,11.1s-13.1-21.8-29-11.3
			c-12.7,8.4-13,23.3-12.1,27.1c-3.4-0.9-20.6,0.3-27.5,14.5c-8.5,17.4,11.7,26.6,11.7,26.6s-24.1,9.6-10.8,32.8
			c10.7,18.7,34.4-1,41.8,4.8c2.5,1.9,47.4,54.2,59.7,68.9V517.3z"/>
		<path class="st1" d="M318.1,518.1c0,0,0.8-16.6-2.4-17.4c-4-0.9-7.8,16.1-7.8,16.1L318.1,518.1z"/>
		<path class="st1" d="M270.8,517.7c0,0-6.2-15.5-9.4-14.8c-4,0.8-0.4,17.9-0.4,17.9L270.8,517.7z"/>
		<path class="st1" d="M223.1,614c0,0-16.6,1-17.4-2.1c-1-4,16-8,16-8L223.1,614z"/>
		<path class="st1" d="M221.9,566.7c0,0-15.6-5.9-15-9.1c0.8-4,17.9-0.7,17.9-0.7L221.9,566.7z"/>
		<path class="st2" d="M269.8,564.1c-12.1,11.8-14.2,31.8-1.6,32c12.6,0.1,8.2-11.8,15.3-18.6c6.7-6.5,16.7-3.3,18.7-12.6
			C304.1,555.4,283.5,550.8,269.8,564.1"/>
		<path class="st2" d="M233.2,600c-5.2,1.2-7.7,4.5-6.8,8.1c1.1,4.4,6.2,4.8,11,3.4c4.8-1.4,7.6-4.7,6.8-7.8
			C243.4,600.6,238.4,598.9,233.2,600"/>
		<path class="st2" d="M247.9,565.9c0.5-3.1-3.4-6.8-8.6-7.9c-5.2-1.1-8.8,0.9-9.5,4.6c-0.8,4.5,3.7,6.9,8.7,7.6
			C243.5,571,247.4,569.1,247.9,565.9"/>
		<path class="st2" d="M311.6,523.4c-3.7-0.7-6.8,2.1-7.5,7.4c-0.8,5.3,1.4,10.1,4.5,10.8c3.1,0.6,6.2-2.5,7.3-7.4
			C316.9,529.2,316.1,524.2,311.6,523.4"/>
		<path class="st2" d="M265.3,527c-3.6,0.9-5.3,4.7-3.9,9.8c1.5,5.1,5.4,8.7,8.5,8c3.1-0.7,4.7-4.8,3.6-9.7
			C272.5,530.2,269.8,525.9,265.3,527"/>
		<g class="st3">
			<g>
				<defs>
					<rect id="SVGID_1_" x="228.8" y="525.1" width="82.4" height="85.7"/>
				</defs>
				<clipPath id="SVGID_2_">
					<use xlink:href="#SVGID_1_"  style="overflow:visible;"/>
				</clipPath>
				<path class="st4" d="M265.5,576c-3.3,8-1.6,14.5,2.2,14.5c3.8,0,1-8.6,3.9-13c2.7-4.2,8-10,6.7-12.1
					C276.1,561.9,269,567.3,265.5,576"/>
				<path class="st4" d="M228.8,608.7c0.1,2.1,3.1,2.2,5.1,2.1c1.7-0.1,4-0.4,4.1-2c0-1.6-2.5-1.5-4.1-1.8
					C232.3,606.7,228.7,607,228.8,608.7"/>
				<path class="st4" d="M231.8,563c-0.9,1.9,1.7,3.4,3.5,4.3c1.5,0.7,3.7,1.6,4.5,0.2c0.8-1.3-1.4-2.5-2.7-3.5
					C235.9,563,232.5,561.4,231.8,563"/>
				<path class="st4" d="M264.7,529.3c-2.1,0.3-1.9,3.3-1.7,5.3c0.2,1.7,0.7,4,2.3,3.9c1.6-0.1,1.4-2.6,1.5-4.2
					C266.9,532.7,266.4,529.1,264.7,529.3"/>
				<path class="st4" d="M310,525.1c-2-0.4-2.8,2.5-3.2,4.5c-0.3,1.6-0.5,4,1,4.4c1.5,0.4,2.1-2.1,2.7-3.5
					C311.1,529,311.7,525.4,310,525.1"/>
			</g>
		</g>
	</g>
	<path class="st5" d="M64.5,673.1c-4.1,0-8.3-2.4-9.7-7.7c-1.6-5.5-0.2-10.9,3.8-14.3c0.5-0.4,1.2-0.4,1.6,0.1
		c0.4,0.5,0.4,1.2-0.1,1.6c-3.2,2.8-4.4,7.3-3,12c1.2,4.7,5.3,6.5,8.8,5.9c0.1,0,0.1,0,0.2,0c5.7-0.1,8.6-4.9,11.8-9.9
		c0.4-0.6,0.7-1.2,1.1-1.8c2.5-4.4,6.6-8,12-10.7c6.3-3.1,12.9-6.1,18.7-8.6c1.1-0.5,2.3-1,3.4-1.5c1.6-0.7,3.2-1.4,4.8-2.1
		c4.9-2.3,10.7-4.8,16.8-4.6c2.3,0,4.5,0.7,6.6,1.3c3.7,1.1,6.8,2,10-0.1c3.9-2.6,4.3-6.6,3.5-9.5c-1.1-3.8-4.3-6.2-8.1-6.3
		c-0.6,0-1.1-0.5-1.1-1.2c0-0.6,0.5-1.1,1.2-1.1c4.8,0.1,8.9,3.3,10.3,8c1.4,4.6-0.3,9.2-4.4,12c-4.1,2.8-8.1,1.6-11.9,0.4
		c-2-0.6-4-1.2-5.9-1.2c-5.6-0.1-11.1,2.2-15.7,4.4c-1.6,0.8-3.3,1.5-4.9,2.1c-1.1,0.5-2.3,1-3.4,1.5c-5.8,2.6-12.4,5.5-18.6,8.6
		c-5,2.5-8.8,5.8-11.1,9.8c-0.4,0.6-0.8,1.2-1.1,1.8c-3.3,5.3-6.7,10.9-13.6,11C65.6,673.1,65,673.1,64.5,673.1"/>
	<path class="st5" d="M57.1,655.2c-4.7,0-8.9-3-10.4-7.5c-1.6-4.6-0.1-9.3,4-12.2c3.6-2.6,7.6-2,11.3-0.9c4.2,1.2,7.7,1.9,11.7,1.1
		c1.4-0.3,2.6-0.8,4-1.4l0.7-0.3l36.9-16.4c3.6-1.6,6.4-5.5,7.8-7.6c0.7-1.1,1.4-2.3,2.1-3.6c2.7-5,5.8-10.7,12.5-10
		c0,0,0.1,0,0.1,0c7.9,1.4,12.7,7.2,12,14.6c0,0,0,0.1,0,0.1c-0.4,2.6-2.2,5.5-4.4,7.6c-0.5,0.4-1.2,0.4-1.6-0.1
		c-0.4-0.5-0.4-1.2,0.1-1.6c1.8-1.6,3.3-4.1,3.7-6.2c0.7-7.5-4.9-11.2-10-12.1c-5.1-0.5-7.6,4-10.2,8.8c-0.7,1.3-1.4,2.5-2.1,3.7
		c-1.9,2.9-4.9,6.8-8.8,8.5l-37.6,16.7c-1.5,0.7-2.8,1.3-4.5,1.6c-4.7,0.9-8.9,0-12.8-1.2c-3.7-1.1-6.7-1.4-9.3,0.5
		c-3.8,2.7-4.1,6.8-3.1,9.6c1,2.9,3.8,6.1,8.6,6c0.6,0,1.2,0.5,1.2,1.1c0,0.6-0.5,1.2-1.1,1.2C57.4,655.2,57.2,655.2,57.1,655.2"/>
	<g>
		<path class="st6" d="M294.5,79.5c0,43.4-35.2,78.6-78.6,78.6c-43.4,0-78.6-35.2-78.6-78.6c0-43.4,35.2-78.6,78.6-78.6
			C259.3,0.9,294.5,36.1,294.5,79.5"/>
		<polygon class="st2" points="323.2,0 86.3,44.9 92.6,78.1 323.2,34.4 		"/>
		<polygon class="st2" points="323.2,55.9 130.3,156.3 145.9,186.2 323.2,94 		"/>
	</g>
	<g>
		<path class="st1" d="M19.7,610c-2.9-0.4-5.7-1.9-7.6-4.2c-11.7-14.1-15.1-31.2-9.2-45.6c5.4-13.4,18.3-22.8,35.4-26
			c6.9-1.3,13.8-1.6,20.5-1.8c19.6-0.8,31.5-1.3,37.9-21.9c2.1-6.6-2-13.3-9-23.6c-6.1-9-13-19.1-13.2-31.2
			c-0.1-11.9,3.6-21.2,11.1-27.5c13.5-11.3,34.5-9,51.4-7.2c5.6,0.6,11,1.2,15,1.1c6.3,0,10.8-1.9,13.9-5.8
			c5.4-6.6,6.2-18.7,2.3-31.4c-6.4-20.4-17-54.4,12.8-68.3c5.9-2.8,13.2-0.6,16.1,4.9c3,5.5,0.6,12.2-5.3,14.9
			c-7.6,3.6-10.1,11.6-0.6,42.3c6.2,19.9,4,38.4-6.1,50.9c-7.7,9.5-19.1,14.6-33,14.7c-5.5,0-11.6-0.6-18-1.3
			c-11.5-1.2-27.1-2.9-32.6,1.6c-2.2,1.8-3.3,5.4-3.2,10.7c0.1,5.8,4.6,12.5,9.5,19.6c7.6,11.1,17,25,11.7,41.6
			c-11.3,35.9-39.4,37.1-59.9,37.9c-6,0.3-11.7,0.5-16.9,1.4c-9,1.7-15.1,5.8-17.6,12c-2.9,7.2-0.7,16.2,5.9,24.2
			c4,4.9,3,11.9-2.3,15.6C26.2,609.8,22.8,610.4,19.7,610"/>
		<path class="st2" d="M265.2,389.3c2,2.5,6.2,2.3,9.5-0.5c3.2-2.8,4.2-7,2.3-9.5c-2-2.5-6.2-2.3-9.5,0.5
			C264.2,382.6,263.2,386.8,265.2,389.3"/>
		<path class="st2" d="M236.9,371c3.1,0.8,6.6-1.9,7.8-5.9c1.2-4.1-0.3-8-3.4-8.8c-3.1-0.8-6.6,1.9-7.8,5.9
			C232.3,366.2,233.8,370.1,236.9,371"/>
		<path class="st2" d="M263,374.4c2.5,2,6.7,0.9,9.4-2.5c2.7-3.4,2.8-7.8,0.3-9.8c-2.5-2-6.7-0.9-9.4,2.5
			C260.6,368.1,260.5,372.4,263,374.4"/>
		<path class="st2" d="M251.4,366.9c2.8,1.5,6.8-0.4,8.8-4.2c2-3.8,1.3-8.1-1.5-9.6c-2.8-1.5-6.8,0.4-8.8,4.2
			C247.9,361.1,248.5,365.4,251.4,366.9"/>
		<path class="st2" d="M238.8,375c-0.2,0-1.1,0.1-1.3,0.1c-5.6,0.8-9.7,5.9-7.8,10.8c2,5.3,8.2,5.3,12.5,7.9
			c4.1,2.9,6.7,8.5,12.3,8.2c5.3-0.3,8.3-6.1,6.7-11.5c-0.1-0.2-0.3-1.1-0.4-1.3c-0.9-3.5,0.8-7.5-0.5-10.9
			c-0.8-2.2-2.4-4.4-4.4-5.5c-1.9-1.3-4.5-2-6.9-1.8C245.4,371.2,242.3,374.4,238.8,375"/>
		<path class="st0" d="M101.8,278.7c2.1-4.1,7.2-6,11.3-3.5c3,1.8,5.5,6,6.6,10c1.9-3.2,4.9-5.7,8.7-6.2c5-0.7,9.5,2.9,10.7,7.7
			c1,4-0.4,7.9-2.9,11c-0.1,0.1-0.1,0.2-0.1,0.2c-0.1,0.1-0.1,0.1-0.2,0.1c-0.9,1-1.8,1.9-2.9,2.7c-0.3,0.2-0.6,0.4-0.9,0.6
			c-10.3,8.5-19,11.3-19,11.3c-0.7,0.2-3.4-3.8-4.7-5.6C102.5,298.8,97.3,287.3,101.8,278.7"/>
	</g>
</g>
</svg>
