<?xml version="1.0" encoding="utf-8"?>
<!-- Generator: Adobe Illustrator 22.1.0, SVG Export Plug-In . SVG Version: 6.00 Build 0)  -->
<svg version="1.0" id="Layer_1" xmlns="http://www.w3.org/2000/svg" xmlns:xlink="http://www.w3.org/1999/xlink" x="0px" y="0px"
	 viewBox="0 0 340.9 866" style="enable-background:new 0 0 340.9 866;" xml:space="preserve">
<style type="text/css">
	.st0{fill:#CE84B6;}
	.st1{fill:#FF8625;}
	.st2{fill:#F1F1F1;}
	.st3{fill:#00BEB6;}
	.st4{opacity:0.41;}
	.st5{clip-path:url(#SVGID_2_);fill:#FFFFFF;}
	.st6{opacity:0.39;}
	.st7{clip-path:url(#SVGID_4_);fill:#FFFFFF;}
	.st8{clip-path:url(#SVGID_6_);fill:#FFFFFF;}
	.st9{clip-path:url(#SVGID_8_);fill:#FFFFFF;}
	.st10{opacity:0.4;}
	.st11{clip-path:url(#SVGID_10_);fill:#FFFFFF;}
	.st12{clip-path:url(#SVGID_12_);fill:#FFFFFF;}
	.st13{clip-path:url(#SVGID_14_);fill:#FFFFFF;}
	.st14{fill:#E5E5E5;}
</style>
<g>
	<g>
		<path class="st0" d="M137.9,649.3c4.6,1.5,9.7-2.2,11.5-8.4c1.8-6.1-0.4-12.3-5-13.9c-4.6-1.5-9.7,2.2-11.5,8.4
			C131.1,641.6,133.4,647.8,137.9,649.3"/>
		<path class="st0" d="M87.1,649.3c4.5-1.5,6.8-7.7,5-13.9c-1.8-6.1-7-9.9-11.5-8.4c-4.6,1.5-6.8,7.7-5,13.9
			C77.4,647.1,82.6,650.8,87.1,649.3"/>
		<path class="st0" d="M123,632.3c4.8,0.5,9.2-4.4,9.7-10.9c0.6-6.5-2.8-12.1-7.6-12.6c-4.8-0.5-9.2,4.4-9.7,10.9
			C114.7,626.2,118.2,631.8,123,632.3"/>
		<path class="st0" d="M102.1,632.3c4.8-0.5,8.2-6.1,7.6-12.6c-0.6-6.5-4.9-11.3-9.7-10.9c-4.8,0.5-8.2,6.1-7.6,12.6
			C92.9,627.9,97.3,632.8,102.1,632.3"/>
		<path class="st0" d="M92.8,652.8c-0.3,0.2-1.3,1.1-1.6,1.3c-6.4,5.5-7.5,15.4-1,20.1c6.9,5,14.7,0,22.2-0.3
			c7.5,0.3,15.4,5.2,22.2,0.3c6.5-4.7,5.4-14.5-1-20.1c-0.2-0.2-1.3-1-1.6-1.3c-4-3.6-5.2-10.1-9.6-13.4c-2.8-2.1-6.6-3.5-10.1-3.4
			c-3.5-0.1-7.3,1.2-10.1,3.4C98.1,642.7,96.8,649.2,92.8,652.8"/>
	</g>
	<polygon class="st1" points="0,866 124.4,801.3 106.3,766.6 0,821.9 	"/>
	<g>
		<path class="st1" d="M103.3,26.9c3,1,6.4-1.5,7.7-5.6c1.2-4.1-0.3-8.2-3.3-9.2c-3-1-6.5,1.5-7.7,5.6
			C98.8,21.8,100.3,25.9,103.3,26.9"/>
		<path class="st1" d="M69.6,26.9c3-1,4.5-5.1,3.3-9.2c-1.2-4.1-4.6-6.6-7.7-5.6c-3,1-4.5,5.1-3.3,9.2
			C63.1,25.4,66.5,27.9,69.6,26.9"/>
		<path class="st1" d="M93.4,15.6c3.2,0.3,6.1-2.9,6.5-7.2c0.4-4.3-1.9-8-5.1-8.3c-3.2-0.3-6.1,2.9-6.5,7.2
			C87.9,11.5,90.2,15.3,93.4,15.6"/>
		<path class="st1" d="M79.5,15.6c3.2-0.3,5.5-4.1,5.1-8.4c-0.4-4.3-3.3-7.5-6.5-7.2c-3.2,0.3-5.5,4-5.1,8.3
			C73.4,12.7,76.3,15.9,79.5,15.6"/>
		<path class="st1" d="M73.3,29.2c-0.2,0.2-0.9,0.7-1,0.8c-4.3,3.7-5,10.2-0.7,13.3c4.6,3.3,9.8,0,14.8-0.2c5,0.2,10.2,3.5,14.8,0.2
			c4.3-3.1,3.6-9.7-0.7-13.3c-0.2-0.1-0.9-0.7-1-0.8c-2.7-2.4-3.5-6.7-6.4-8.9c-1.9-1.4-4.4-2.3-6.7-2.2c-2.3-0.1-4.8,0.8-6.7,2.2
			C76.8,22.5,76,26.8,73.3,29.2"/>
	</g>
	<path class="st2" d="M0.8,27.8v198.7c42-13.5,72.3-52.9,72.3-99.4C73.1,80.7,42.7,41.3,0.8,27.8"/>
	<g>
		<path class="st3" d="M120,370.2c-0.9-16.1-15.4-16.7-15.4-16.7s11.7-8.5,3.7-22.5c-6.5-11.3-26.9-7.7-26.9-7.7s5-6.1-0.6-14.6
			c-5.7-8.6-29.8-4.8-42.1-1.9c-5.7,1.4-20.9,5-36.5,8.9v138.2c15.4-5.3,62.1-21.2,73-25.2c11.9-4.4,34.1-14.5,34.2-24.7
			c0-10.2-7.5-12.6-7.5-12.6S120.8,383.2,120,370.2"/>
		<path class="st0" d="M65.9,367.4c-5.8-19.3-25.9-32.7-33-19.5c-7.1,13.2,7.9,15.2,11.3,26.5c3.2,10.7-5.8,19.5,3,26.8
			C56.1,408.6,72.5,389.3,65.9,367.4"/>
		<path class="st0" d="M73,313.9c-2-5.1-8.1-4.7-13.6-2.4c-5.5,2.4-8.4,6.8-6.9,10.3c1.5,3.5,7.7,4.8,13.7,2.7
			C72.2,322.3,74.6,318,73,313.9"/>
		<path class="st0" d="M80.8,344.5c1.5,3.5,7.7,4.8,13.7,2.7c6-2.2,8.4-6.5,6.8-10.6c-2-5.1-8.1-4.7-13.6-2.3
			C82.1,336.6,79.3,341,80.8,344.5"/>
		<path class="st0" d="M90.3,376.1c1.5,3.5,7.7,4.8,13.7,2.7c6-2.2,8.4-6.5,6.8-10.6c-2-5.1-8.1-4.7-13.6-2.3
			C91.6,368.2,88.8,372.6,90.3,376.1"/>
		<path class="st0" d="M92.4,411.8c6-2.2,8.4-6.5,6.8-10.6c-2-5.1-8.1-4.7-13.6-2.4c-5.5,2.4-8.4,6.8-6.9,10.3
			C80.1,412.6,86.4,413.9,92.4,411.8"/>
		<g class="st4">
			<g>
				<defs>
					<rect id="SVGID_1_" x="3.1" y="358" width="18" height="13.7"/>
				</defs>
				<clipPath id="SVGID_2_">
					<use xlink:href="#SVGID_1_"  style="overflow:visible;"/>
				</clipPath>
				<path class="st5" d="M16.5,358.5c-2.1,1.2-4.1,2.7-6.1,4c-1.1,0.7-2.1,1.5-3.2,2.2c-0.4,0.3-0.9,0.6-1.3,0.8
					c-0.2,0.1-0.4,0.2-0.6,0.3c-0.8,0.4,0.5-0.2-0.1,0.1c-3.6,1.2-1.9,6.9,1.7,5.7c2.1-0.7,4-2.2,5.9-3.5c2.3-1.6,4.5-3.2,7-4.6
					C23,361.6,19.8,356.6,16.5,358.5"/>
			</g>
		</g>
		<g class="st6">
			<g>
				<defs>
					<rect id="SVGID_3_" x="5.8" y="390.7" width="29" height="13.7"/>
				</defs>
				<clipPath id="SVGID_4_">
					<use xlink:href="#SVGID_3_"  style="overflow:visible;"/>
				</clipPath>
				<path class="st7" d="M31.1,390.8c-7.9,2-15.4,5.4-23.2,7.8c-3.7,1.1-2,6.8,1.7,5.7c7.8-2.4,15.3-5.8,23.2-7.8
					C36.5,395.6,34.7,389.9,31.1,390.8"/>
				<path class="st7" d="M31.1,390.8c-7.9,2-15.4,5.4-23.2,7.8c-3.7,1.1-2,6.8,1.7,5.7c7.8-2.4,15.3-5.8,23.2-7.8
					C36.5,395.6,34.7,389.9,31.1,390.8"/>
			</g>
		</g>
		<g class="st4">
			<g>
				<defs>
					<rect id="SVGID_5_" x="17.9" y="414.3" width="19.3" height="14.8"/>
				</defs>
				<clipPath id="SVGID_6_">
					<use xlink:href="#SVGID_5_"  style="overflow:visible;"/>
				</clipPath>
				<path class="st8" d="M32.6,414.7c-4.6,2.3-7.7,7-12.7,8.6c-3.6,1.2-1.9,6.9,1.7,5.7c5.6-1.8,9-6.7,14.1-9.3
					C39.2,418,36,413,32.6,414.7"/>
			</g>
		</g>
		<g class="st4">
			<g>
				<defs>
					<rect id="SVGID_7_" x="11" y="434" width="19.2" height="10.8"/>
				</defs>
				<clipPath id="SVGID_8_">
					<use xlink:href="#SVGID_7_"  style="overflow:visible;"/>
				</clipPath>
				<path class="st9" d="M26.5,434.2c-4.5,1.4-8.7,3.8-13.4,4.8c-3.7,0.9-2,6.5,1.7,5.7c4.7-1.1,8.9-3.4,13.4-4.8
					C31.8,438.7,30.1,433,26.5,434.2"/>
			</g>
		</g>
		<g class="st10">
			<g>
				<defs>
					<rect id="SVGID_9_" x="38.8" y="313.2" width="69.6" height="93.2"/>
				</defs>
				<clipPath id="SVGID_10_">
					<use xlink:href="#SVGID_9_"  style="overflow:visible;"/>
				</clipPath>
				<path class="st11" d="M55.7,356.7c-6.7-7.9-14.5-9.7-16.6-5.8c-2.1,4,8.5,5.8,11.7,11.4c2.9,5.2,6.2,14,9.1,13.8
					C64.7,375.7,62.9,365.3,55.7,356.7"/>
				<path class="st11" d="M69.8,315.1c-0.6-2.4-4.1-1.9-6.5-1.4c-1.9,0.4-4.7,1.3-4.4,3.2c0.3,1.8,3.2,1.3,5.2,1.3
					C66.1,318.1,70.3,317,69.8,315.1"/>
				<path class="st11" d="M88.4,339.3c0.3,1.8,3.2,1.3,5.2,1.3c1.9,0,6.2-1.1,5.7-3.1c-0.6-2.4-4.1-1.9-6.5-1.4
					C90.8,336.5,88.1,337.4,88.4,339.3"/>
				<path class="st11" d="M108.4,369.4c-0.6-2.4-4.1-1.9-6.5-1.4c-1.9,0.4-4.7,1.4-4.4,3.2c0.3,1.8,3.2,1.3,5.2,1.3
					C104.6,372.4,108.9,371.3,108.4,369.4"/>
				<path class="st11" d="M96.8,403.2c-0.6-2.4-4.1-1.9-6.5-1.4c-1.9,0.4-4.7,1.3-4.4,3.2c0.3,1.8,3.3,1.3,5.2,1.2
					C93.1,406.3,97.3,405.2,96.8,403.2"/>
			</g>
		</g>
		<g class="st10">
			<g>
				<defs>
					<rect id="SVGID_11_" x="2.1" y="326.6" width="10.8" height="7.7"/>
				</defs>
				<clipPath id="SVGID_12_">
					<use xlink:href="#SVGID_11_"  style="overflow:visible;"/>
				</clipPath>
				<path class="st12" d="M9.1,326.7c-2.3,0.5-4.7,1-7,1.5v6.1c2.9-0.6,5.8-1.3,8.7-1.9C14.6,331.6,12.8,325.9,9.1,326.7"/>
			</g>
		</g>
		<g class="st10">
			<g>
				<defs>
					<rect id="SVGID_13_" x="2.1" y="413.6" width="4.2" height="7.4"/>
				</defs>
				<clipPath id="SVGID_14_">
					<use xlink:href="#SVGID_13_"  style="overflow:visible;"/>
				</clipPath>
				<path class="st13" d="M5.4,414.3c-1-0.9-2.2-0.9-3.3-0.4v7.1c1.2-0.7,2.3-1.6,3.4-2.5C6.8,417.5,6.5,415.3,5.4,414.3"/>
			</g>
		</g>
	</g>
	<g>
		<path class="st14" d="M175.8,287.1c-1.6-3.7-1-8.6,3.3-11.9c4.5-3.6,10-4.4,14.7-2.1c0.6,0.3,0.8,1,0.5,1.5
			c-0.3,0.6-1,0.8-1.5,0.5c-3.9-1.9-8.4-1.2-12.2,1.8c-3.8,2.9-3.9,7.4-2,10.4c0,0.1,0.1,0.1,0.1,0.2c2.3,5.2,7.8,6.1,13.7,7
			c0.7,0.1,1.4,0.2,2.1,0.3c5,0.6,9.9,3,14.5,7c5.3,4.6,10.6,9.5,15.2,13.9c0.9,0.9,1.8,1.7,2.7,2.6c1.2,1.2,2.5,2.5,3.8,3.6
			c4,3.6,8.5,8,10.8,13.7c0.8,2.1,1.1,4.4,1.3,6.6c0.4,3.8,0.8,7.1,4,9.2c3.9,2.6,7.8,1.5,10.1-0.4c3-2.5,4.1-6.4,2.7-9.9
			c-0.2-0.6,0.1-1.3,0.7-1.5c0.6-0.2,1.3,0.1,1.5,0.7c1.7,4.5,0.4,9.5-3.4,12.5c-3.8,3-8.7,3.3-12.8,0.6c-4.1-2.7-4.6-6.8-5-10.9
			c-0.2-2-0.4-4.1-1.2-6c-2.1-5.2-6.3-9.4-10.2-12.8c-1.3-1.2-2.6-2.5-3.9-3.7c-0.9-0.9-1.8-1.7-2.7-2.6c-4.6-4.3-9.8-9.3-15.1-13.8
			c-4.2-3.7-8.7-5.8-13.4-6.4c-0.7-0.1-1.4-0.2-2.1-0.3c-6.2-1-12.6-2-15.4-8.3C176.3,288,176,287.6,175.8,287.1"/>
		<path class="st14" d="M189.4,273.3c-1.8-4.4-0.7-9.4,2.9-12.6c3.7-3.3,8.6-3.7,12.8-1.1c3.8,2.3,4.7,6.2,5.2,10.1
			c0.5,4.3,1.2,7.9,3.5,11.2c0.8,1.2,1.8,2.1,2.9,3.2l0.5,0.5l29.4,27.7c2.8,2.7,7.5,3.8,10.1,4.2c1.3,0.2,2.7,0.4,4.1,0.5
			c5.7,0.6,12.1,1.2,14.1,7.7c0,0,0,0,0,0.1c1.8,7.8-1.8,14.5-8.9,16.7c0,0-0.1,0-0.1,0c-2.6,0.6-6,0.1-8.7-1.2
			c-0.6-0.3-0.8-1-0.5-1.5c0.3-0.6,1-0.8,1.5-0.5c2.2,1.1,5.1,1.5,7.1,1c7.2-2.2,8.4-8.9,7.3-13.9c-1.5-4.9-6.7-5.5-12.1-6
			c-1.4-0.1-2.9-0.3-4.3-0.5c-3.4-0.6-8.1-1.9-11.3-4.8l-29.9-28.2c-1.2-1.1-2.3-2.1-3.2-3.6c-2.6-4-3.4-8.2-3.8-12.2
			c-0.4-3.8-1.3-6.7-4.1-8.4c-4-2.4-7.8-1.2-10.1,0.8c-2.3,2-4.2,5.9-2.2,10.2c0.3,0.6,0,1.3-0.6,1.5c-0.6,0.3-1.3,0-1.5-0.6
			C189.5,273.6,189.5,273.4,189.4,273.3"/>
	</g>
	<path class="st3" d="M249.8,124c1.7-2.5,3.6-4.9,5.4-7.4c-0.2,0.2-0.3,0.4-0.5,0.7c1.2-1.5,2.4-3,3.9-4.3c1.2-1.1,2.5-2.2,3.7-3.3
		c2.5-2.3,5-4.7,7.4-7.2c4.4-4.5,8.6-9.3,12.5-14.3c8.1-11.1,14.6-23,19.8-35.7c1.3-3.4,2.5-6.9,3.5-10.4c1.8-6,3.3-13.7,8.2-17.7
		c1.9-1.9,4.1-3.3,6.7-4c2-0.7,4-0.8,6-0.4c4.7,0.5,9,3,11.5,7.2c1,1.7,1.7,3.5,2.3,5.4c1.1,3.6,0.5,6.4,0.1,10.1
		c-0.3,2.1-0.5,4.3-1,6.4c-0.8,3.8-1.8,7.6-3,11.4c-2.7,8.9-6.3,17.6-10.4,25.9c-7.6,15.2-17.7,29.4-29.5,41.6
		c-3.2,3.3-6.5,6.3-10,9.2c-2.7,2.2-5.3,4.5-8.3,6.1c-3.1,1.6-6.5,3-9.8,4c-6.2,1.9-13-0.5-17-5.5c-1.8-2.3-2.8-4.6-3.3-7.4
		C247.6,131,247.9,126.8,249.8,124"/>
</g>
</svg>
