<?xml version="1.0" encoding="utf-8"?>
<!-- Generator: Adobe Illustrator 22.1.0, SVG Export Plug-In . SVG Version: 6.00 Build 0)  -->
<svg version="1.0" id="Layer_1" xmlns="http://www.w3.org/2000/svg" xmlns:xlink="http://www.w3.org/1999/xlink" x="0px" y="0px"
	 viewBox="0 0 299.6 92.3" style="enable-background:new 0 0 299.6 92.3;" xml:space="preserve">
<style type="text/css">
	.st0{fill:#CE84B5;}
	.st1{fill:#14BAB3;}
	.st2{fill:#F9A94B;}
	.st3{fill:#F58D4E;}
	.st4{fill-rule:evenodd;clip-rule:evenodd;fill:#F58D4E;}
	.st5{fill:#7D7D7D;}
</style>
<g>
	<path class="st0" d="M33.7,63.1c-0.2,1.2-0.2,2.5-0.2,3.6c-0.1,1.6-0.1,3.1-0.5,4.6c-0.3,2.5-1.9,4.1-4.3,4.7c-2.2,0.7-4.7-0.4-6-2
		c-0.6-1-1.1-2.1-1.3-2.9c-0.2-0.6-0.3-0.6-0.8-0.3c-0.5,0.7-1,1.2-1.6,2c-2.2,2-4.8,3.1-8,3.1c-2.3,0-4.4-0.9-6.1-2.3
		c-2.4-1.8-4-4.2-4.6-7.2C0,65,0,63.8,0,62.4c0.4-3.9,1.4-7.7,3.4-11c1.9-3.2,4.3-5.9,7.8-7.6c3.2-1.7,9-1.7,12.4,0.5
		c0.1,0.2,0.2,0.2,0.5,0.5c0.2,0.1,0.6,0.1,0.8-0.1c0.3-0.2,0.5-0.6,0.8-0.8c1.9-1.6,4.9-1.1,6.3,1.1c0.5,0.6,0.7,1.6,0.8,2.5
		c0.3,1.3,0.4,2.6,0.6,3.9c0.4,2,0.4,4,0.5,6.2C33.8,59.4,33.7,61.3,33.7,63.1 M14,65.2c0,0.3,0.2,0.5,0.3,0.5
		c0.1,0,0.4-0.1,0.5-0.2c0.5-0.5,0.8-1,1.1-1.3c2.3-3.1,3.9-6.5,5.7-9.6c0-0.1,0.1-0.1,0.1-0.2c0-0.1,0-0.2-0.1-0.5
		c-0.1-0.1-0.2-0.1-0.4-0.1c-1.2,0.9-2.4,1.7-3.6,2.4c-0.9,0.5-1.6,1.4-2.2,2.5c-1.1,1.8-1.2,3.9-1.5,5.6C14,64.8,13.9,65,14,65.2"
		/>
	<path class="st0" d="M40.6,51.5c0.1-1.7,0.2-3.4,0.4-5c0.2-1.6,0.5-3.1,0.8-4.5c0.3-1.2,1-2.5,2-3.4c1.6-1.6,5.1-2.1,7-0.3
		c1.5,1.4,2.5,3.1,3,5c0.5,1.4,0.6,2.8,0.9,4.2c0.2,0.3,0.2,0.3,0.7,0.2c1.5-1.1,3.2-1.6,5.1-1.6c1.1,0.1,2.3,0.4,3.4,1
		c2.7,1.6,4.7,3.8,6.4,6.4c0.3,0.4,0.5,1,0.8,1.4c0.2,0.2,0.3,0.2,0.5-0.1c0.7-1.4,1.4-2.7,2.2-4.2c1.8-3.1,4.5-5.3,7.9-6.9
		c1.7-0.6,3.4-1,5.2-0.6c3.5,0.7,6.6,2.1,9.3,4.6c2.2,2,3.2,4.5,3.6,7.4c0.3,2.8,0.3,5.5,0.3,8.3c0,2.3-0.4,4.4-0.7,6.6
		c-0.2,1.6-0.4,3-0.6,4.6c-0.3,2.3-1.1,4.3-3.1,5.8c-4.2,3.3-9.9,0.7-10.8-4c-0.3-1.9,0-3.5,0.2-5.2c0.3-2.2,0.7-4.3,0.9-6.5
		c0.1-1.1,0.2-2,0.2-3c-0.6-13.3-5.3-12-9.4-0.6c-0.8,2.9-0.9,5.8-1.2,8.8c-0.2,1.6-0.2,3.1-0.6,4.7c-0.1,0.9-0.5,1.8-1.2,2.5
		c-0.3,0.3-0.7,0.7-0.9,1.1c-2.7,3.6-7.4,3.3-10.2,0.3c-1-1.1-1.5-2.2-1.7-3.4c-0.4-0.9-0.5-2-0.6-3c-0.6-4.7-0.6-9.7-1-14
		c-0.6-5.6-5.3-7.2-5.3,2.8c-0.2,4.8-0.3,9.5-0.5,14.2c0,2.3-1,4.1-2.7,5.7c-2.3,1.9-5.9,2-8.3,0.1C41.1,79.1,40,77.2,40,75
		c-0.1-2.2,0-4.4,0-6.7C40.1,62.8,40.5,57.1,40.6,51.5"/>
	<path class="st0" d="M119.6,61.1c-0.2,2.2-0.2,4.6-0.4,6.9c-0.5,3.1-2.2,5.2-5.1,6.1c-2.5,0.7-5,0.2-7-2.2
		c-1.1-1.2-1.7-2.6-1.6-4.3c0-2.6-0.1-5.1,0.2-7.5c0.2-1.6,0.2-2.9,0.2-4.6c0-3.4,1.3-6.4,3.4-9.2c2.4-2.9,6.3-2.4,8,0.3
		c1.6,2.3,2.6,4.8,2.6,7.7c-0.1,1.1-0.1,2.5-0.1,3.8h-0.1V61.1z"/>
	<path class="st1" d="M192.9,73.5c-0.8-0.2-1.1-0.1-1.1,0.9c0.2,1.1,0.3,2.3,0.3,3.4c0,2.6,0.2,5.4,0.1,7.9c-0.2,3.1-2.4,5.8-6,6.5
		c-3.3,0.5-6.3-1.6-7.4-4.6c-0.2-0.8-0.4-1.6-0.6-2.5c-0.1-3.9-0.2-7.8-0.4-11.7c-0.2-2.7-0.2-5.5-0.5-8.3c-0.2-2.6-0.5-5.4-0.7-8.1
		c-0.2-1.9-0.1-3.7-0.2-5.6c-0.1-2-0.2-3.8-0.3-5.8c-0.1-1.3,0.2-2.5,0.4-3.7c0.9-2.6,2.4-4.7,5.3-5.2c2.4-0.6,4.4,0.3,6,2
		c0.4,0.5,0.7,0.8,1,1.2c0.2,0.3,0.4,0.3,0.7,0.1c0.4-0.2,0.7-0.5,1.1-0.7c5.4-3.4,13.2-3.6,18.6,0.7c3.3,2.6,5.6,6.1,6.4,10.2
		c0.5,1.5,0.7,3,1,4.6c0.1,0.7,0.1,1.4,0,2.1c-0.3,3.7-1.5,7.1-3.4,10.3c-2.2,3.4-5.5,5.4-9.3,6.6c-1.6,0.5-3.3,0.6-5.1,0.5
		C197.1,74.4,195,74.2,192.9,73.5 M204,51.5c-1.1-2.5-3.1-3.8-5.9-3.9c-2-0.1-3.8,0.6-5.4,1.6c-2.1,1.3-2.1,1.5-2,4
		c0,0.2-0.1,0.6,0,0.7c0.4,1.4,0.2,2.7,0.4,4.1c0,1.4,0.1,2.8,0.3,4.2c0.2,0.5,0.2,0.7,0.7,1c0.9,0.2,1.9,0.6,2.8,0.9
		c0.8,0.3,1.8,0.6,2.6,0.8c1.6,0.3,2.9-0.2,3.9-1.3c2.2-2.2,3.3-5,3.5-8.2C205,53.9,204.5,52.7,204,51.5"/>
	<path class="st1" d="M227.8,42.5c2-2.2,4.3-3.9,7.2-4.5c2.9-0.7,5.7-0.3,8.3,1.6c1.9,1.5,2.9,3.5,3.5,5.6c0.3,1.3,0.3,2.5,0.1,3.8
		c-0.2,1.8-0.5,3.6-1.1,5.3c-1.1,2.9-3.1,4.8-6.2,5.7c-1.3,0.2-2.5,0.2-3.8-0.1c-1.4-0.4-1.5-0.3-1.5,1.4c-0.2,1.4-0.2,2.8,0.4,4.2
		c0.3,0.5,0.4,0.8,0.8,1.3c0.1,0.4,0.4,0.4,0.6,0.2c0.7-0.6,1.1-1.2,1.6-1.9c0.6-0.6,1.1-1.5,1.9-1.8c1.5-0.9,3.8,0.1,3.9,1.9
		c0.2,0.6,0.2,1.4-0.1,2c-0.6,2.3-1.6,4.2-3.4,5.8c-2.8,2.5-7.2,2.5-10.1,0.4c-2.9-2-4.8-4.8-6-7.8c-1.1-2.9-1.5-5.8-1.4-8.3
		C222.2,51.1,224,46.5,227.8,42.5 M240.4,49.8c-0.1-0.6-0.4-1-1-1.4c-0.7-0.2-1.1,0-1.6,0.5c-1.3,1.2-1.9,2.8-2.3,4.4
		c0,0.3,0.2,0.6,0.4,0.7c0.8,0.3,1.6,0.3,2.5,0.3c0.8-0.3,1.5-0.8,1.7-1.6c0.1-0.6,0.3-1.2,0.3-1.5V49.8z"/>
	<path class="st1" d="M270.3,54.5c-0.4,0-0.6,0.2-0.6,0.5v0.5c-0.1,3.3-0.2,6.7,0,10.1c0.1,3.2,0.8,6.5,2.3,9.4
		c0.3,0.6,0.6,0.7,1.1,0.1c0.3-0.6,0.7-1.1,0.7-1.5c0.3-0.9,0.4-2,0.6-2.9c0.2-1.4,0.3-2.9,0.5-4.5c0-0.5,0.3-1,0.4-1.4
		c0.9-1.4,2.1-2,3.7-1.6c1.4,0.2,2,1.2,2.5,2.5c0,0.1,0.1,0.2,0.1,0.4c0.2,4.3,0.2,8.4-1.8,12.3c-1.1,2.2-2.3,4-4.3,5.4
		c-1.6,1.1-3.4,1.6-5.1,1.7c-1.9,0-3.6-0.1-5.2-0.6c-2.8-0.9-5-2.6-6.2-5.2c-1.1-2.2-1.8-4.7-2.3-7c-0.5-2.8-0.8-5.6-1-8.3
		c-0.2-2.3,0.1-4.7,0.1-7.1v-2.5c0-0.9-0.1-1-1-1.1c-0.4,0-0.9,0-1.3-0.2c-0.6-0.1-1.1-0.3-1.6-0.5c-0.9-0.6-1.5-2-1.4-2.9
		c0.3-1.3,1.1-2.2,2.4-2.4c0.8-0.1,1.6,0,2.4-0.1c0.6,0,0.8-0.2,0.9-0.6c0.1-2.5,0.3-4.9,0.6-7.4c0.2-2.5,0.3-5.1,0.8-7.7
		c0.5-2.3,1.4-4.3,3.2-5.9c2.1-1.8,4.3-2.1,6.8-1c1.1,0.5,2,1.3,2.5,2.4c0.7,1.1,1.2,2.4,1.2,3.9c0.1,1.8,0,3.4-0.3,5.1
		c-0.2,1.6-0.2,3.4-0.5,5.1c-0.1,1.7,0,3.4-0.4,5.2c-0.2,0.3,0.3,0.8,0.7,0.8h1.8c1.5,0,3.2,0,4.7,0.1c0.7,0,1.4,0.3,2.1,0.5
		c1.1,0.3,1.6,1.1,2,2c0.2,0.5,0.2,1.1,0,1.6c-0.4,1-1.1,1.7-2.1,2.1c-0.7,0.3-1.5,0.4-2.4,0.5c-1,0.2-2.2,0-3.3,0
		C272.5,54.5,271.4,54.4,270.3,54.5"/>
	<path class="st2" d="M139.5,81.3c0.3,0.1,0.7,0.2,1.1,0.2c-0.6,1.2-1.1,2.3-1.4,3.2c-0.7,0-1.3,0-2,0
		C137.7,82.8,138.8,81.9,139.5,81.3"/>
	<polygon class="st3" points="154.9,65.2 157.2,65.1 156.1,66.5 	"/>
	<path class="st3" d="M139.5,81.3c-0.7,0.7-1.7,1.6-2.4,3.4c-0.3,0.9-0.5,2.1-0.6,3.5c0.6,0.2,1.1,0.4,1.7,0.6c0-0.6,0.2-2,0.9-4.1
		c0.4-0.9,0.8-2,1.4-3.2C140.2,81.4,139.8,81.3,139.5,81.3 M171.6,67.6c-0.2-5.1-1.9-10.3-7.9-14.7l-0.3-0.2
		c-12.2-8.6-24.7-8.6-24.7-8.6c-6.8,0.6-7.7-2.4-7.7-2.4c-2.6-4.7,0.5-9,0.5-9c6.7,2.4,11.3-0.9,11.3-0.9c2.9-2.8,4.1-2.9,4.2-2.9
		l-4.3-2c0,0,4.6-1.2,6.3-1.9c1.7-0.7,2.2,1.5,2.2,1.5l0.4,2.7l4.6,0.8l1.2-7.5l2.2,4.1c2.2,4.1-0.9,5.6-0.9,5.6l-2.1,2l-1.1,4.4
		l3.4-1.3c4.8-1.5,7.1-8.1,7-10.4c-0.1-2.4-8.8-8.3-20.8-7.8c-16.7,0.7-20.9,12.7-20.6,19.6c0.3,6.8,2.5,14.7,19.7,19.5l0.8,0.2
		c2.4,0.6,3.7,0.4,3.5,0.4l2.7-5.3l2.2,4.6c0,0,3.4-0.9,5.3,0.3l3.4-3.1c0,0,2.8,9.7-0.2,15.5l3.7,0.3l-0.5,1.5l-3.5-0.6l-0.6,0.9
		l3.1,1.2l-0.7,1.1l-3-1.2l-0.6,0.8l2.6,1.9l-0.7,1.1l-2.6-1.9c0,0-2.1,2.1-5.6,3.8c-1.9,1-4.3,1.8-7,2.1h0
		c-0.5,0.7-1.8,1.4-2.6,3.2c-0.5,1.1-0.9,2.7-0.8,4.9c1.7,0.2,3.4,0.3,5,0.2c5.7-0.2,10.2-1.7,13.6-3.9c2.3-1.5,4.2-3.3,5.6-5.3
		C170.6,76.7,171.8,71.9,171.6,67.6 M128.6,60.3c0.2-0.8-4.8,4.3-4.5,11.3c0.1,2.8,0.8,5.2,1.8,7.3h0c1.1,2.2,2.6,4.1,4.5,5.7
		c0.5,0.4,1,0.8,1.5,1.1c0.1-0.3,0.2-0.7,0.3-1.1c0.4-1.5,1.2-3.5,2.7-5.7c0.1-0.2,0.2-0.3,0.3-0.5
		C131.2,75.2,126.6,69.3,128.6,60.3"/>
	<polygon class="st4" points="149.8,35.7 148.3,35.7 148.2,34.2 149.7,34.1 	"/>
	<path class="st1" d="M289.7,39.3v-7.7h3.3c0.8,0,1.4,0.1,1.8,0.2c0.4,0.1,0.7,0.4,0.9,0.7c0.2,0.4,0.3,0.8,0.3,1.2
		c0,0.6-0.2,1.1-0.5,1.4c-0.3,0.4-0.9,0.6-1.5,0.7c0.3,0.2,0.6,0.4,0.8,0.6c0.2,0.2,0.5,0.6,0.9,1.2l0.9,1.5h-1.9l-1.1-1.7
		c-0.4-0.6-0.7-1-0.8-1.1c-0.1-0.2-0.3-0.3-0.5-0.3c-0.2-0.1-0.4-0.1-0.8-0.1h-0.3v3.2H289.7z M291.3,34.8h1.2c0.8,0,1.2,0,1.4-0.1
		c0.2-0.1,0.3-0.2,0.4-0.3c0.1-0.2,0.2-0.4,0.2-0.6c0-0.3-0.1-0.5-0.2-0.6c-0.1-0.2-0.3-0.3-0.6-0.3c-0.1,0-0.5,0-1.1,0h-1.2V34.8z"
		/>
	<path class="st1" d="M299.6,35.7c0,3.8-3.1,6.8-6.8,6.8c-3.8,0-6.8-3.1-6.8-6.8c0-3.8,3.1-6.8,6.8-6.8
		C296.5,28.9,299.6,32,299.6,35.7 M292.8,41.5c3.2,0,5.8-2.6,5.8-5.8c0-3.2-2.6-5.8-5.8-5.8c-3.2,0-5.8,2.6-5.8,5.8
		C287,38.9,289.6,41.5,292.8,41.5"/>
	<path class="st0" d="M111.2,38.7c1.7,0.4,3.2,0.2,4.6-0.6c1.4-0.8,2.4-2.1,2.8-3.8c0.4-1.6,0.1-3.2-0.8-4.8
		c-0.9-1.6-2.2-2.5-3.8-2.9c-1.7-0.4-3.2-0.2-4.5,0.6c-1.4,0.8-2.3,2-2.8,3.7l-0.1,0.2c-0.4,1.6-0.1,3.2,0.8,4.7
		C108.2,37.4,109.6,38.4,111.2,38.7"/>
</g>
<path class="st5" d="M179.4,22.3c0.2,1,1.2,1.6,2.2,1.4c1-0.2,1.6-1.2,1.4-2.2c-2.9-12.3-15.2-19.9-27.5-17c-1,0.2-1.6,1.2-1.4,2.2
	c0.2,1,1.2,1.6,2.2,1.4C166.6,5.6,177,12,179.4,22.3z"/>
<path class="st5" d="M173.3,23.5c0,0.1,0.1,0.2,0.1,0.3c0.2,1,1.2,1.6,2.2,1.4c1-0.2,1.6-1.2,1.4-2.2c-2.1-9-11.1-14.5-20.1-12.4
	c-1,0.2-1.6,1.2-1.4,2.2c0.2,1,1.2,1.6,2.2,1.4c0.1,0,0.2,0,0.3-0.1C164.8,12.6,171.6,16.8,173.3,23.5z"/>
</svg>
